<?xml version="1.0" encoding="utf-8"?>
<!-- Generator: Adobe Illustrator 23.0.2, SVG Export Plug-In . SVG Version: 6.00 Build 0)  -->
<svg version="1.1" id="Capa_1" xmlns="http://www.w3.org/2000/svg" xmlns:xlink="http://www.w3.org/1999/xlink" x="0px" y="0px"
	 viewBox="0 0 20 20" style="enable-background:new 0 0 20 20;" xml:space="preserve">
<style type="text/css">
	.st0{fill:#838383;}
</style>
<path class="st0" d="M6.7,13.6l5.9,6c0.5,0.5,1.2,0.5,1.7,0c0.2-0.2,0.4-0.5,0.4-0.9c0-0.3-0.1-0.6-0.4-0.9L8.4,12
	c-0.3-0.3-0.5-0.7-0.7-1.1V9.4c0.1-0.6,0.3-1.1,0.8-1.5l5.8-5.7c0.2-0.2,0.4-0.5,0.4-0.9c0-0.3-0.1-0.6-0.4-0.9
	c-0.2-0.2-0.5-0.4-0.9-0.4c0,0,0,0,0,0c-0.3,0-0.6,0.1-0.9,0.4L6.8,6.2C4.8,8.2,4.8,11.5,6.7,13.6z"/>
</svg>
