<?xml version="1.0" encoding="utf-8"?>
<!-- Generator: Adobe Illustrator 23.0.2, SVG Export Plug-In . SVG Version: 6.00 Build 0)  -->
<svg version="1.1" id="Capa_1" xmlns="http://www.w3.org/2000/svg" xmlns:xlink="http://www.w3.org/1999/xlink" x="0px" y="0px"
	 viewBox="0 0 20 20" style="enable-background:new 0 0 20 20;" xml:space="preserve">
<style type="text/css">
	.st0{fill:#FFD600;stroke:#FFD600;stroke-miterlimit:10;}
</style>
<path class="st0" d="M10.7,7.3c0.7,0.1,1.3,0.4,1.8,0.9l5.7,5.8c0.3,0.3,0.7,0.3,1,0s0.3-0.7,0-1c0,0,0,0,0,0l-5.7-5.8
	c-1.8-1.8-4.8-1.9-6.7-0.1L0.8,13c-0.3,0.3-0.3,0.7,0,1c0.3,0.3,0.7,0.3,1,0l0,0l5.9-5.9c0.4-0.4,0.9-0.6,1.4-0.8L10.7,7.3z"/>
</svg>
